<svg width="512" height="512" viewBox="0 0 512 512" xmlns="http://www.w3.org/2000/svg">
  <defs>
    <linearGradient id="silverGrad" x1="0%" y1="0%" x2="100%" y2="100%">
      <stop offset="0%" stop-color="#e8e9eb"/>
      <stop offset="50%" stop-color="#b9bcc2"/>
      <stop offset="100%" stop-color="#8d9099"/>
    </linearGradient>
    <linearGradient id="goldGrad" x1="0%" y1="0%" x2="100%" y2="100%">
      <stop offset="0%" stop-color="#ffcb3d"/>
      <stop offset="45%" stop-color="#f9a825"/>
      <stop offset="100%" stop-color="#e68a00"/>
    </linearGradient>
    <linearGradient id="goldShine" x1="0%" y1="0%" x2="100%" y2="100%">
      <stop offset="0%" stop-color="#ffffff" stop-opacity="0.6"/>
      <stop offset="100%" stop-color="#ffffff" stop-opacity="0"/>
    </linearGradient>
  </defs>
  <rect x="8" y="8" width="496" height="496" rx="48" fill="#111111"/>
  <rect x="46" y="46" width="420" height="420" rx="30" fill="url(#silverGrad)"/>
  <rect x="70" y="70" width="372" height="372" rx="22" fill="#111111"/>
  <rect x="104" y="104" width="304" height="304" rx="14" fill="url(#goldGrad)"/>
  <path d="M118 145
           Q116 128 134 124
           Q210 108 250 130
           Q222 118 172 132
           Q135 143 130 175
           Q124 220 130 260
           Q116 230 118 145 Z" fill="url(#goldShine)"/>
  <ellipse cx="256" cy="256" rx="42" ry="170" fill="#0d0d0d"/>
  <path d="M46 76 Q46 46 76 46 L436 46" stroke="#ffffff" stroke-opacity="0.35" stroke-width="4" fill="none"/>
</svg>
